<svg version="1" xmlns="http://www.w3.org/2000/svg" width="798.667" height="798.667" viewBox="0 0 599.000000 599.000000"><path d="M0 123.8v37.8l6.8 7.2 6.7 7.2 16.1 5.3c15.5 5.2 16.3 5.4 23 4.6 7.9-1 15.5-3.1 23.4-6.6 7-3.2 18.9-15.5 23.1-23.9 3.6-7.3 4.1-10.4 4.3-25.5l.1-11.6-4.2-8.4c-2.3-4.6-5.8-11.9-7.7-16.2L88.1 86H0v37.8zM371 88.9c0 1.6-.7 3.6-1.5 4.5-.8.8-1.1 1.7-.7 2 .9.5 0 8.5-1.3 12.6-.3 1-1.5 2.2-2.5 2.5-1 .3-2.2 1.5-2.5 2.6-.4 1-1.5 2.4-2.6 2.9-1 .6-1.9 1.9-1.9 2.9s-1 4-2.2 6.7c-2.2 5.1-3.4 12.9-1.7 11.9.5-.4.9-.1.9.4 0 1.7.2 2.4 1.2 5 .6 1.7.3 4.1-1.1 8.5-1.1 3.4-2.5 10.3-3.2 15.4-1.3 10.2-.3 17.9 3.1 23.8 1 1.7 2.1 4.6 2.5 6.3.9 4 3.4 9.1 4.5 9.1.5 0 2.6 1.7 4.7 3.7s3.2 3.3 2.4 2.8c-1-.5-1.2-.4-.7.4.4.6 1.1.9 1.6.6.4-.3 1.4.3 2.1 1.1 1.7 2.1 7.4 5.7 15.6 9.9 5.4 2.9 7.5 3.4 17.1 4 11.5.7 21.8-.9 25.2-4 .9-.8 2.1-1.5 2.6-1.5 1.9 0 20-14.4 20-16 0-.3 1.2-2.3 2.6-4.5 1.4-2.2 2.8-5.2 3.2-6.7.3-1.5 2.6-6.9 5.1-12 2.5-5.1 4.5-9.9 4.5-10.6 0-.7 2-5.2 4.4-10 2.4-4.8 5.8-12.2 7.5-16.4 3-7.2 3.2-8.3 2.8-17-.3-9.1-2.6-22.9-5.2-31.8-.8-2.5-1.7-6.2-2-8.3l-.7-3.7H371v2.9zm65.4 33.7c.8.3 1.2 1.2 1 1.9-.7 1.7-3.4.8-3.4-1.1 0-1.6.2-1.6 2.4-.8zm-4.4.8c0 .3-.4.8-1 1.1-.5.3-1 .1-1-.4 0-.6.5-1.1 1-1.1.6 0 1 .2 1 .4zm9.1 1.5c-1.1.7-.9 1 .9 1.6l2.2.7-2.3 1.2c-2.7 1.4-6.1.9-3.7-.5.7-.5 1.4-1.3 1.4-1.9.3-1.8.4-2 1.7-2 .9 0 .8.3-.2.9zm7.1 2.9c.4 1.3-.1 1.8-1.5 1.9-1.4.2-1.7-.1-.9-.9.6-.6.8-1.7.5-2.6-.4-.9-.2-1.3.4-.9.6.4 1.3 1.5 1.5 2.5zM21.5 293c-8.2 2.1-16.3 4.3-18 4.8l-3 .8v103.8l4.4.8c2.5.4 4.8 1.3 5.3 2 .6 1 .8 1 .8.1s1.6-1.1 6.3-.7c4.7.5 6.7 1.2 8.2 2.8 3.3 3.7 7.8 6.4 14.6 8.6 3.5 1.2 7.2 2.5 8.2 3.1 1.3.7 2.5.4 4.7-1.1 4.1-2.9 8.7-3.5 14.7-1.7 8.7 2.6 24.8 3.2 31.8 1.2 3.3-.9 6.8-1.7 7.7-1.8.9-.1 1.6-.5 1.5-1-.2-1 1.4-2 6-3.7 3.8-1.4 10-7.4 15.6-14.9 2.2-3.1 4.5-5.9 5.1-6.3.6-.4.7-.8.2-.8-.5 0-.4-.6.2-1.3.5-.6 2.1-3.9 3.5-7.2 3.4-8.1 4.4-24.6 2.1-32.6-2.2-7.4-6.3-14.3-12.8-21.5-3-3.4-5.2-6.5-4.8-6.9.4-.5.1-.5-.5-.1-.7.4-1.3.3-1.3-.2 0-1.1-13.6-8.2-15.6-8.2-.8 0-4.5-1.4-8.2-3.1-3.7-1.7-10.1-4.2-14.2-5.6-4.1-1.4-10.2-3.8-13.5-5.3-19.4-9.1-26.9-9.7-49-4zm19.3 30.8c-1 .2-1.8.8-1.8 1.4 0 .6-.2.9-.5.6-1.2-1.2.7-3.7 2.3-3 1.6.6 1.5.7 0 1zm2.2 1.6c0 .2-.7.6-1.5 1-.8.3-1.5.1-1.5-.4 0-.6.7-1 1.5-1s1.5.2 1.5.4zm-1.2 6.4c.2.7-.5.9-1.9.7-2.5-.5-3.8-1.5-1.9-1.5 1 0 1-.4-.1-1.7-1.3-1.7-1.3-1.7 1-.2 1.4.9 2.7 2.1 2.9 2.7zm-3.1 4.9c-.8.7-3.7-.9-3.1-1.9.3-.5 1.2-.4 2 .3.8.6 1.3 1.4 1.1 1.6zm-1.2 1.3c.3.5.2 1-.4 1-.5 0-1.3-.5-1.6-1-.3-.6-.2-1 .4-1 .5 0 1.3.4 1.6 1zm.5 4.2c0 .6-.7.7-1.6.4-.9-.3-1.8-.6-2-.6-.3 0-.3-.4.1-1 .7-1.1 3.5-.2 3.5 1.2zM534.5 367.6c-9.7 2-16.6 3.9-19.6 5.5-2 1-3.9 1.6-4.2 1.3-.3-.3-4.7 3.7-9.9 9-10.7 10.9-11.2 11.5-11.6 14-.2 1.1-1 2.9-1.8 4.1-.8 1.3-1.7 7.2-2.3 15.6-1.1 15.4-.3 20.1 5.5 30 1.9 3.1 3.4 6 3.4 6.3 0 .3 3.9 8.6 8.6 18.4 4.8 9.7 10 20.5 11.7 23.9 2.2 4.7 4.5 7.6 9.1 11.3l6.1 5H599V404.1l-3-1.6c-1.6-.8-3.8-3.2-4.9-5.3-2.2-4.2-12.4-16.1-16.7-19.4-1.6-1.2-3.1-2.5-3.4-2.8-1-1.2-10.4-5.3-11.9-5.3-.9.1-3.3-.5-5.4-1.3-3.4-1.3-14.4-1.7-19.2-.8zm29 104.4c-.3.4 0 1.1.5 1.3.6.3.5.4-.2.3-.7-.1-1.5-1.1-1.6-2.1-.3-1.1 0-1.5.7-1 .6.3.9 1 .6 1.5zm-8.5 4.6c1.1 1.2 1 1.8-.3 3.2-1 .9-1.8 1.2-1.8.7-.8-5.9-.3-6.9 2.1-3.9zm4.5.2c-.3.3-1.1 0-1.8-.7-.9-1-.8-1.1.6-.5 1 .3 1.5.9 1.2 1.2zm-8.8 4.9c.2.6-.4 1.3-1.3 1.7-1.4.5-1.5.4-.5-.8.8-1 .9-1.6.1-1.9-.6-.3-.5-.4.2-.3.6.1 1.3.7 1.5 1.3zM235.8 372.3c-3.2 1.2-6.6 3-7.7 3.9-1.1.9-3 2.2-4.2 2.9-1.3.6-3.7 2.6-5.4 4.3-1.6 1.7-4.4 4.3-6.2 5.8-4.1 3.3-7.6 10-11.2 21.3-1.6 4.9-5.2 15.5-8.1 23.5-11.1 31.4-11.2 32-10.7 38.5.4 5.5 7.4 31.6 9.9 37.1l1.1 2.4h51.8c56.8 0 52.9.4 52.9-6 0-1.6.7-3.5 1.5-4.3 1.1-1.1 1.1-1.7.3-1.9-2-.7-1-12 1.3-14.1 1-1 1.9-1.4 1.9-1 .1.4.7-.6 1.5-2.2.8-1.7 1.9-3.7 2.4-4.5.4-.8 1.6-4.2 2.6-7.5.9-3.3 2.1-7.1 2.7-8.4.6-1.7.5-2.6-.3-3.1-.6-.4-.8-1.3-.5-1.9.4-.6.2-1-.4-.9-2.1.5-4-6.7-2.9-10.4 1.7-5.4 2.7-23.8 1.8-29.8-.5-3-1-6.3-1-7.3 0-.9-.4-1.7-1-1.7-.5 0-.9-.6-.9-1.3 0-.8-.9-2.2-2-3.2-1.2-1-1.8-2.5-1.6-3.2.3-.7.1-1.3-.4-1.3-.9 0-2.5-3.9-2.2-5.3.2-.5-.7-1.1-1.8-1.4-1.1-.3-1.7-.9-1.4-1.4.3-.5 0-.9-.6-.9-.7 0-3.4-2-6.2-4.4-2.8-2.4-9.4-6.6-14.7-9.2l-9.6-4.8-12.5-.3c-10.8-.2-13.3.1-18.2 2zm-16.9 101.4c-1.3 1.5-1.2 1.6.6.9 1.6-.6 1.8-.5.8.5-2 2-4.1-.5-2.3-2.6.7-.8 1.5-1.3 1.8-1 .3.2-.1 1.2-.9 2.2zm9.4-1c-.7.2-1.9.2-2.5 0-.7-.3-.2-.5 1.2-.5s1.9.2 1.3.5zm-1.6 2.6c-.2.6-.9 1.2-1.5 1.3-.8.2-.8 0-.2-.3.7-.3.4-1-.7-1.9-1.7-1.2-1.6-1.3.5-.7 1.3.3 2.1 1 1.9 1.6zm5.8 1.7c-.3.5-1.5 1-2.6 1-1 0-1.9-.5-1.9-1 0-.6 1.2-1 2.6-1 1.4 0 2.3.4 1.9 1z"/></svg>